<?xml version="1.0" encoding="UTF-8" standalone="no"?>
<svg
   xmlns:dc="http://purl.org/dc/elements/1.1/"
   xmlns:cc="http://creativecommons.org/ns#"
   xmlns:rdf="http://www.w3.org/1999/02/22-rdf-syntax-ns#"
   xmlns:svg="http://www.w3.org/2000/svg"
   xmlns="http://www.w3.org/2000/svg"
   viewBox="0 0 954 26"
   height="26"
   width="954"
   id="svg2"
   version="1.1">
  <metadata
     id="metadata8">
    <rdf:RDF>
      <cc:Work
         rdf:about="">
        <dc:format>image/svg+xml</dc:format>
        <dc:type
           rdf:resource="http://purl.org/dc/dcmitype/StillImage" />
        <dc:title></dc:title>
      </cc:Work>
    </rdf:RDF>
  </metadata>
  <defs
     id="defs6" />
  <path
     id="path12"
     d="m 1.14344,24.5 c 0,-0.933333 0.9444444,-1.5 2.5,-1.5 2.4814816,0 2.4999996,-0.06667 2.4999996,-9 0,-4.95 -0.302066,-9 -0.671259,-9 C 5.1029876,5 4.006344,5.719082 3.0351939,6.597961 2.0640439,7.47684 0.76530722,7.884335 0.14911242,7.503505 -1.0937609,6.735368 5.7803196,0.111996 7.8934396,0.041626 c 0.92995,-0.03097 1.25,2.90284 1.25,11.458374 V 23 H 11.64344 c 1.555556,0 2.5,0.566667 2.5,1.5 0,1.179487 -1.388889,1.5 -6.5000004,1.5 C 2.5323289,26 1.14344,25.679487 1.14344,24.5 Z m 115,0.330061 c 0,-0.643466 2.925,-4.199712 6.5,-7.902769 6.54474,-6.779176 7.92753,-10.099764 5.3,-12.727292 -2.0157,-2.015696 -5.63669,-1.378884 -7.39196,1.3 -1.95605,2.98531 -3.40804,3.229257 -3.40804,0.57258 0,-3.229293 4.93071,-6.345509 8.99641,-5.685738 4.19396,0.680587 6.00359,2.865097 6.00359,7.247288 0,2.562486 -1.18881,4.535932 -5.60771,9.30887 L 120.92801,23 h 6.10772 c 4.76241,0 6.10771,0.330394 6.10771,1.5 0,1.215686 -1.61111,1.5 -8.5,1.5 -5.82311,0 -8.5,-0.368447 -8.5,-1.169939 z m 119.75,-0.807426 C 233.03678,21.770763 232.21451,19 234.40289,19 c 0.6927,0 1.82152,0.9 2.50848,2 2.72601,4.365037 11.2807,0.879308 9.74178,-3.969422 -0.40758,-1.284145 -1.8156,-2.341756 -3.59014,-2.696664 -3.39381,-0.678762 -3.91382,-3.046893 -0.7717,-3.514363 5.17692,-0.770199 4.82088,-6.999097 -0.43612,-7.629931 -1.87619,-0.225142 -3.04724,0.392767 -4.26414,2.25 -1.99193,3.040061 -3.44761,3.307316 -3.44761,0.63296 0,-3.157998 4.93259,-6.345205 8.83892,-5.711295 1.83675,0.298064 3.97439,1.068809 4.75031,1.712769 1.87159,1.55328 1.79887,6.394991 -0.12494,8.318803 -1.38096,1.380953 -1.32007,1.751361 0.60416,3.675595 1.64969,1.649691 1.99637,2.857441 1.5134,5.272322 -0.84067,4.203346 -2.5555,5.712441 -7.19427,6.331144 -3.00376,0.400632 -4.51278,0.02568 -6.63758,-1.649283 z M 361.14344,22.5 V 19 h -6 c -4.76765,0 -6,-0.320214 -6,-1.559036 C 349.14344,15.204265 360.95132,0 362.68838,0 c 1.15216,0 1.45506,1.665371 1.45506,8 0,7.333333 0.16667,8 2,8 1.11111,0 2,0.666667 2,1.5 0,0.833333 -0.88889,1.5 -2,1.5 -1.61905,0 -2,0.666667 -2,3.5 0,2.444444 -0.45238,3.5 -1.5,3.5 -1.04762,0 -1.5,-1.055556 -1.5,-3.5 z m 0,-12.7 c 0,-3.41 -0.37188,-5.7725 -0.82641,-5.25 -0.45452,0.5225 -2.51785,3.3125 -4.58517,6.2 L 351.9731,16 h 4.58517 4.58517 z m 108.74377,15.035642 c -4.02525,-1.469855 -2.34718,-2.880087 2.61738,-2.199619 5.03404,0.689991 7.63885,-1.188025 7.63885,-5.507452 C 480.14344,13.290203 478.42372,12 473.30752,12 h -4.43593 l 0.63593,-4.639572 c 0.34975,-2.551764 0.63592,-5.251764 0.63592,-6 C 470.14344,0.350955 471.84177,0 476.72677,0 c 7.95406,0 8.57344,2.214384 0.83912,3 -4.48102,0.455162 -4.95083,0.74661 -5.23887,3.25 -0.28151,2.44658 0.007,2.75 2.61514,2.75 4.42828,0 8.20128,3.446136 8.20128,7.490793 0,4.722302 -0.83506,6.372551 -4.07152,8.046192 -3.22269,1.666517 -5.25758,1.732685 -9.18471,0.298657 z m 118.49169,0.127815 c -2.39946,-0.963969 -4.23546,-4.592976 -4.23546,-8.371728 C 584.14344,13.040946 593.74285,0 596.35658,0 c 2.14082,0 2.13796,0.02574 -0.30487,2.75 -1.35625,1.5125 -3.23953,3.68443 -4.18507,4.826511 -1.67488,2.023023 -1.648,2.066066 1.04356,1.671028 4.12897,-0.606003 8.23324,3.00476 8.23324,7.243254 0,4.722302 -0.83506,6.372551 -4.07152,8.046192 -3.1838,1.646406 -5.38735,1.754511 -8.69302,0.426472 z m 8.19311,-3.534886 c 5.04906,-5.049053 -2.30194,-12.56811 -7.59983,-7.773583 C 585.31602,16.96377 587.6874,23 592.64344,23 c 1.29643,0 3.06429,-0.707143 3.92857,-1.571429 z m 107.57143,4.054772 c 0,-0.284161 2.47876,-5.459161 5.50835,-11.5 L 715.16015,3 h -7.00836 c -5.56298,0 -7.00835,-0.309354 -7.00835,-1.5 0,-1.215686 1.61111,-1.5 8.5,-1.5 6.86093,0 8.5,0.287123 8.5,1.488978 C 718.14344,4.058474 706.74804,26 705.41356,26 c -0.69857,0 -1.27012,-0.232495 -1.27012,-0.516657 z m 120,-0.146932 c -5.07252,-2.020168 -6.62213,-7.714283 -3.06691,-11.269499 1.65657,-1.656567 1.72809,-2.10322 0.5,-3.122444 -1.66825,-1.384526 -1.87272,-5.254499 -0.42094,-7.967177 1.97647,-3.693062 10.65979,-3.415661 13.22254,0.422413 1.2707,1.903054 0.82942,6.302199 -0.76491,7.625373 -1.35776,1.126848 -1.30142,1.48312 0.5,3.1614 2.5443,2.370371 2.62138,6.968556 0.15425,9.201279 -2.02115,1.82911 -7.68625,2.919519 -10.12403,1.948655 z m 7.42857,-3.90784 C 834.6882,18.312385 832.19199,14 827.27201,14 c -3.2644,0 -5.12857,1.635695 -5.12857,4.5 0,1.155 0.54,2.64 1.2,3.3 1.69902,1.699024 6.36891,1.48823 8.22857,-0.371429 z M 831.53751,8.75 c 1.42367,-2.273713 -0.26499,-5.126397 -3.30119,-5.576764 -4.16058,-0.617149 -6.71364,3.80595 -3.84985,6.66974 1.6853,1.6853 5.80578,1.055519 7.15104,-1.092976 z m 110.86178,12.5 c 5.20577,-7.217282 5.23011,-7.297183 2.02813,-6.656786 -6.30814,1.261629 -10.67944,-6.440638 -6.53393,-11.512844 4.81106,-5.886531 14.76274,-2.185638 14.54744,5.409989 C 952.30473,13.295387 943.96857,26 940.95195,26 c -1.76859,0 -1.61484,-0.504588 1.44734,-4.75 z m 6.29717,-11.308536 c 1.39065,-1.536643 1.60314,-2.470423 0.83816,-3.683169 -2.72232,-4.315774 -8.87839,-4.149402 -9.98757,0.26992 -1.28333,5.11322 5.36605,7.593817 9.14941,3.413249 z"
     style="fill:#000000" />
</svg>
